<svg width="25" height="24" viewBox="0 0 25 24" fill="none" xmlns="http://www.w3.org/2000/svg">
<path fill-rule="evenodd" clip-rule="evenodd" d="M7.39813 0.154874C8.71775 0.096374 9.1385 0.083374 12.5 0.083374C15.8615 0.083374 16.2823 0.0974573 17.6008 0.154874C18.9193 0.212291 19.8193 0.414874 20.6068 0.708457C21.4314 1.00854 22.1795 1.47762 22.7983 2.08429C23.4283 2.67904 23.9143 3.39837 24.2248 4.19354C24.5308 4.95187 24.74 5.81854 24.8008 7.08604C24.8615 8.35896 24.875 8.76412 24.875 12C24.875 15.237 24.8604 15.6422 24.8008 16.913C24.7411 18.1805 24.5308 19.0471 24.2248 19.8055C23.9142 20.6007 23.4274 21.3213 22.7983 21.9169C22.1795 22.5235 21.4314 22.9915 20.6068 23.2905C19.8193 23.5852 18.9193 23.7867 17.603 23.8452C16.2823 23.9037 15.8615 23.9167 12.5 23.9167C9.1385 23.9167 8.71775 23.9026 7.39813 23.8452C6.08188 23.7878 5.18188 23.5852 4.39438 23.2905C3.56854 22.9915 2.8203 22.5227 2.20175 21.9169C1.57218 21.3218 1.08498 20.6016 0.774125 19.8065C0.46925 19.0482 0.26 18.1815 0.19925 16.914C0.1385 15.6411 0.125 15.236 0.125 12C0.125 8.76304 0.139625 8.35788 0.19925 7.08821C0.258875 5.81854 0.46925 4.95187 0.774125 4.19354C1.08544 3.39846 1.57301 2.6783 2.20288 2.08321C2.82055 1.47708 3.56803 1.00794 4.39325 0.708457C5.18075 0.414874 6.08075 0.213374 7.397 0.154874H7.39813ZM17.5006 2.29987C16.1956 2.24246 15.8041 2.23054 12.5 2.23054C9.19588 2.23054 8.80438 2.24246 7.49938 2.29987C6.29225 2.35296 5.6375 2.54687 5.201 2.71046C4.62388 2.92712 4.211 3.18387 3.77788 3.60096C3.3673 3.9856 3.05133 4.45385 2.85313 4.97137C2.68325 5.39171 2.48188 6.02221 2.42675 7.18462C2.36713 8.44129 2.35475 8.81829 2.35475 12C2.35475 15.1818 2.36713 15.5588 2.42675 16.8155C2.48188 17.9779 2.68325 18.6084 2.85313 19.0287C3.05113 19.5455 3.36725 20.0145 3.77788 20.3991C4.17725 20.7945 4.66438 21.099 5.201 21.2896C5.6375 21.4532 6.29225 21.6471 7.49938 21.7002C8.80438 21.7576 9.19475 21.7695 12.5 21.7695C15.8053 21.7695 16.1956 21.7576 17.5006 21.7002C18.7078 21.6471 19.3625 21.4532 19.799 21.2896C20.3761 21.073 20.789 20.8162 21.2221 20.3991C21.6328 20.0145 21.9489 19.5455 22.1469 19.0287C22.3168 18.6084 22.5181 17.9779 22.5733 16.8155C22.6329 15.5588 22.6453 15.1818 22.6453 12C22.6453 8.81829 22.6329 8.44129 22.5733 7.18462C22.5181 6.02221 22.3168 5.39171 22.1469 4.97137C21.9219 4.41562 21.6553 4.01804 21.2221 3.60096C20.8227 3.20562 20.3364 2.90135 19.799 2.71046C19.3625 2.54687 18.7078 2.35296 17.5006 2.29987ZM10.9194 15.6736C11.8021 16.0275 12.7851 16.0752 13.7003 15.8087C14.6155 15.5422 15.4063 14.978 15.9376 14.2125C16.4688 13.4469 16.7076 12.5275 16.6131 11.6112C16.5185 10.695 16.0966 9.83876 15.4194 9.18879C14.9876 8.77331 14.4656 8.45517 13.8909 8.25728C13.3161 8.0594 12.703 7.98668 12.0956 8.04438C11.4881 8.10207 10.9015 8.28873 10.378 8.59093C9.85451 8.89313 9.40709 9.30335 9.06797 9.79205C8.72884 10.2807 8.50646 10.8358 8.41683 11.4172C8.3272 11.9986 8.37255 12.5919 8.54961 13.1544C8.72667 13.7168 9.03104 14.2345 9.44081 14.6702C9.85058 15.1058 10.3556 15.4485 10.9194 15.6736ZM8.00225 7.66888C8.5929 7.1001 9.29411 6.64892 10.0658 6.3411C10.8376 6.03328 11.6647 5.87485 12.5 5.87485C13.3353 5.87485 14.1624 6.03328 14.9342 6.3411C15.7059 6.64892 16.4071 7.1001 16.9978 7.66888C17.5884 8.23765 18.0569 8.91289 18.3766 9.65603C18.6963 10.3992 18.8608 11.1957 18.8608 12C18.8608 12.8044 18.6963 13.6009 18.3766 14.3441C18.0569 15.0872 17.5884 15.7624 16.9978 16.3312C15.8049 17.4799 14.187 18.1252 12.5 18.1252C10.813 18.1252 9.19513 17.4799 8.00225 16.3312C6.80937 15.1825 6.13922 13.6245 6.13922 12C6.13922 10.3755 6.80937 8.81757 8.00225 7.66888ZM20.2715 6.78704C20.4179 6.65408 20.535 6.4942 20.6161 6.31685C20.6971 6.1395 20.7404 5.94829 20.7433 5.75455C20.7463 5.56081 20.7088 5.36847 20.6332 5.18892C20.5575 5.00937 20.4452 4.84626 20.303 4.70925C20.1607 4.57224 19.9913 4.46411 19.8048 4.39127C19.6184 4.31843 19.4186 4.28235 19.2175 4.28517C19.0163 4.288 18.8177 4.32967 18.6335 4.40771C18.4494 4.48576 18.2833 4.59859 18.1453 4.73954C17.8767 5.01366 17.7297 5.37776 17.7354 5.75455C17.7411 6.13134 17.8991 6.49116 18.1758 6.75762C18.4525 7.02408 18.8262 7.17621 19.2175 7.1817C19.6087 7.18719 19.9868 7.04562 20.2715 6.78704Z" fill="#F8F8F8"/>
</svg>
