<svg width="26" height="18" viewBox="0 0 26 18" fill="none" xmlns="http://www.w3.org/2000/svg">
<path d="M25.4583 3.04929C25.3111 2.52413 25.0243 2.04867 24.6284 1.67346C24.2214 1.28671 23.7226 1.01006 23.1789 0.869625C21.1444 0.333375 12.9934 0.333375 12.9934 0.333375C9.59538 0.294714 6.19815 0.464756 2.82094 0.842542C2.27731 0.993356 1.77938 1.27619 1.37144 1.66588C0.970603 2.05154 0.68027 2.52713 0.528603 3.04821C0.16427 5.01093 -0.0127475 7.00383 -6.38066e-05 9.00004C-0.0130638 10.9945 0.16352 12.9867 0.528603 14.9519C0.67702 15.4708 0.96627 15.9442 1.36819 16.3266C1.7701 16.709 2.2706 16.9853 2.82094 17.1315C4.88252 17.6667 12.9934 17.6667 12.9934 17.6667C16.3958 17.7054 19.7974 17.5354 23.1789 17.1575C23.7226 17.0171 24.2214 16.7405 24.6284 16.3537C25.0293 15.9713 25.3142 15.4957 25.4572 14.9779C25.831 13.0159 26.0128 11.0222 25.9999 9.02496C26.0281 7.01928 25.8465 5.01615 25.4583 3.04821V3.04929ZM10.4021 12.7094V5.29179L17.1838 9.00113L10.4021 12.7094Z" fill="#F8F8F8"/>
</svg>
