<svg width="26" height="21" viewBox="0 0 26 21" fill="none" xmlns="http://www.w3.org/2000/svg">
<path d="M25.5983 3.34842C24.659 3.74925 23.6498 4.02009 22.589 4.1425C23.6836 3.51178 24.5025 2.51909 24.893 1.34967C23.8645 1.93791 22.739 2.35196 21.5652 2.57384C20.7759 1.76227 19.7304 1.22436 18.5911 1.0436C17.4517 0.862842 16.2823 1.04936 15.2643 1.57419C14.2464 2.09903 13.4368 2.93281 12.9614 3.9461C12.4859 4.95938 12.3712 6.09548 12.635 7.178C10.5511 7.07725 8.51253 6.55568 6.65156 5.64715C4.79058 4.73862 3.14877 3.46343 1.8327 1.90434C1.3827 2.65184 1.12395 3.5185 1.12395 4.4415C1.12345 5.27241 1.33594 6.0906 1.74257 6.82346C2.14919 7.55633 2.73738 8.18121 3.45495 8.64267C2.62276 8.61717 1.80893 8.40063 1.0812 8.01109V8.07609C1.08112 9.24147 1.49974 10.371 2.26603 11.273C3.03233 12.175 4.0991 12.7939 5.28533 13.0248C4.51333 13.2259 3.70396 13.2556 2.91833 13.1114C3.25301 14.1142 3.90495 14.991 4.78287 15.6193C5.66078 16.2475 6.72073 16.5956 7.81433 16.6149C5.95789 18.0183 3.6652 18.7795 1.30508 18.7762C0.887006 18.7763 0.469288 18.7528 0.0540771 18.7058C2.44974 20.189 5.23846 20.9762 8.08658 20.9732C17.7278 20.9732 22.9985 13.2837 22.9985 6.61467C22.9985 6.398 22.9928 6.17917 22.9827 5.9625C24.0079 5.24856 24.8929 4.36447 25.5961 3.35167L25.5983 3.34842Z" fill="#F8F8F8"/>
</svg>
