<svg width="27" height="26" viewBox="0 0 27 26" fill="none" xmlns="http://www.w3.org/2000/svg">
<rect width="27" height="26" fill="#09B3B0"/>
<path fill-rule="evenodd" clip-rule="evenodd" d="M8.39813 1.15487C9.71775 1.09637 10.1385 1.08337 13.5 1.08337C16.8615 1.08337 17.2823 1.09746 18.6008 1.15487C19.9193 1.21229 20.8193 1.41487 21.6068 1.70846C22.4314 2.00854 23.1795 2.47762 23.7983 3.08429C24.4283 3.67904 24.9143 4.39837 25.2248 5.19354C25.5308 5.95187 25.74 6.81854 25.8008 8.08604C25.8615 9.35896 25.875 9.76412 25.875 13C25.875 16.237 25.8604 16.6422 25.8008 17.913C25.7411 19.1805 25.5308 20.0471 25.2248 20.8055C24.9142 21.6007 24.4274 22.3213 23.7983 22.9169C23.1795 23.5235 22.4314 23.9915 21.6068 24.2905C20.8193 24.5852 19.9193 24.7867 18.603 24.8452C17.2823 24.9037 16.8615 24.9167 13.5 24.9167C10.1385 24.9167 9.71775 24.9026 8.39813 24.8452C7.08188 24.7878 6.18188 24.5852 5.39438 24.2905C4.56854 23.9915 3.8203 23.5227 3.20175 22.9169C2.57218 22.3218 2.08498 21.6016 1.77413 20.8065C1.46925 20.0482 1.26 19.1815 1.19925 17.914C1.1385 16.6411 1.125 16.236 1.125 13C1.125 9.76304 1.13962 9.35788 1.19925 8.08821C1.25887 6.81854 1.46925 5.95187 1.77413 5.19354C2.08544 4.39846 2.57301 3.6783 3.20288 3.08321C3.82055 2.47708 4.56803 2.00794 5.39325 1.70846C6.18075 1.41487 7.08075 1.21337 8.397 1.15487H8.39813ZM18.5006 3.29987C17.1956 3.24246 16.8041 3.23054 13.5 3.23054C10.1959 3.23054 9.80438 3.24246 8.49938 3.29987C7.29225 3.35296 6.6375 3.54687 6.201 3.71046C5.62388 3.92712 5.211 4.18387 4.77788 4.60096C4.3673 4.9856 4.05133 5.45385 3.85313 5.97137C3.68325 6.39171 3.48188 7.02221 3.42675 8.18462C3.36713 9.44129 3.35475 9.81829 3.35475 13C3.35475 16.1818 3.36713 16.5588 3.42675 17.8155C3.48188 18.9779 3.68325 19.6084 3.85313 20.0287C4.05113 20.5455 4.36725 21.0145 4.77788 21.3991C5.17725 21.7945 5.66438 22.099 6.201 22.2896C6.6375 22.4532 7.29225 22.6471 8.49938 22.7002C9.80438 22.7576 10.1948 22.7695 13.5 22.7695C16.8053 22.7695 17.1956 22.7576 18.5006 22.7002C19.7078 22.6471 20.3625 22.4532 20.799 22.2896C21.3761 22.073 21.789 21.8162 22.2221 21.3991C22.6328 21.0145 22.9489 20.5455 23.1469 20.0287C23.3168 19.6084 23.5181 18.9779 23.5733 17.8155C23.6329 16.5588 23.6453 16.1818 23.6453 13C23.6453 9.81829 23.6329 9.44129 23.5733 8.18462C23.5181 7.02221 23.3168 6.39171 23.1469 5.97137C22.9219 5.41562 22.6553 5.01804 22.2221 4.60096C21.8227 4.20562 21.3364 3.90135 20.799 3.71046C20.3625 3.54687 19.7078 3.35296 18.5006 3.29987ZM11.9194 16.6736C12.8021 17.0275 13.7851 17.0752 14.7003 16.8087C15.6155 16.5422 16.4063 15.978 16.9376 15.2125C17.4688 14.4469 17.7076 13.5275 17.6131 12.6112C17.5185 11.695 17.0966 10.8388 16.4194 10.1888C15.9876 9.77331 15.4656 9.45517 14.8909 9.25728C14.3161 9.0594 13.703 8.98668 13.0956 9.04438C12.4881 9.10207 11.9015 9.28873 11.378 9.59093C10.8545 9.89313 10.4071 10.3033 10.068 10.792C9.72884 11.2807 9.50646 11.8358 9.41683 12.4172C9.3272 12.9986 9.37255 13.5919 9.54961 14.1544C9.72667 14.7168 10.031 15.2345 10.4408 15.6702C10.8506 16.1058 11.3556 16.4485 11.9194 16.6736ZM9.00225 8.66888C9.5929 8.1001 10.2941 7.64892 11.0658 7.3411C11.8376 7.03328 12.6647 6.87485 13.5 6.87485C14.3353 6.87485 15.1624 7.03328 15.9342 7.3411C16.7059 7.64892 17.4071 8.1001 17.9978 8.66888C18.5884 9.23765 19.0569 9.91289 19.3766 10.656C19.6963 11.3992 19.8608 12.1957 19.8608 13C19.8608 13.8044 19.6963 14.6009 19.3766 15.3441C19.0569 16.0872 18.5884 16.7624 17.9978 17.3312C16.8049 18.4799 15.187 19.1252 13.5 19.1252C11.813 19.1252 10.1951 18.4799 9.00225 17.3312C7.80937 16.1825 7.13922 14.6245 7.13922 13C7.13922 11.3755 7.80937 9.81757 9.00225 8.66888ZM21.2715 7.78704C21.4179 7.65408 21.535 7.4942 21.6161 7.31685C21.6971 7.1395 21.7404 6.94829 21.7433 6.75455C21.7463 6.56081 21.7088 6.36847 21.6332 6.18892C21.5575 6.00937 21.4452 5.84626 21.303 5.70925C21.1607 5.57224 20.9913 5.46411 20.8048 5.39127C20.6184 5.31843 20.4186 5.28235 20.2175 5.28517C20.0163 5.288 19.8177 5.32967 19.6335 5.40771C19.4494 5.48576 19.2833 5.59859 19.1453 5.73954C18.8767 6.01366 18.7297 6.37776 18.7354 6.75455C18.7411 7.13134 18.8991 7.49116 19.1758 7.75762C19.4525 8.02408 19.8262 8.17621 20.2175 8.1817C20.6087 8.18719 20.9868 8.04562 21.2715 7.78704Z" fill="#F8F8F8"/>
</svg>
