<svg width="83" height="41" viewBox="0 0 83 41" fill="none" xmlns="http://www.w3.org/2000/svg">
<path d="M9.40348 32.2157C8.00219 32.4608 7.22799 30.9804 7.42929 29.0197C7.59961 27.3824 8.47445 25.3922 9.10154 24.1079C8.36606 24.9412 7.59187 25.353 6.988 25.4903C6.27574 29.255 4.85896 33.1765 2.93896 33.6079C1.71574 33.8824 0.477028 32.3432 0.987996 29.4804C1.19703 28.2648 1.70799 26.1177 2.24993 24.1569C1.64606 24.2648 1.19703 24.0295 0.987996 23.7648C0.778963 23.5001 0.848641 23.2942 1.12735 23.255C1.71574 23.1667 2.188 22.9903 2.62154 22.853C3.00864 21.451 3.35703 20.255 3.61251 19.6667C3.72864 19.304 3.91445 19.2844 4.0538 19.5687C4.34025 20.1471 4.43316 20.9608 4.16993 22.2942C4.75832 22.2059 5.1609 22.5295 5.37767 22.8628C5.52477 23.0981 5.44735 23.2255 5.16864 23.2648C4.79703 23.3236 4.34025 23.4216 3.85251 23.5785C3.35703 25.3138 2.60606 27.7746 2.18025 29.8726C1.8009 31.7452 2.24993 33.1079 3.0009 32.9118C4.09251 32.6177 5.61767 29.3432 6.25251 25.5001C4.78154 25.1079 6.14412 21.5785 6.88735 21.3726C7.48348 21.1961 7.49896 22.6667 7.22025 24.2844C7.84735 24.0687 8.47445 23.5295 9.06283 22.7746C9.27187 22.5099 9.388 22.4118 9.58929 22.6079C10.0073 23.0393 10.6267 23.9804 10.1932 24.8824C9.48864 26.3334 8.79186 28.0883 8.65251 29.3824C8.49767 30.7354 8.86928 31.6079 9.41896 31.5001C10.1777 31.3824 10.8977 29.6667 11.2615 27.7942C11.308 27.5883 11.4319 27.5197 11.5325 27.7354C11.6641 27.9903 11.7803 28.5687 11.6486 29.2648C11.3699 30.7648 10.4177 32.0295 9.40348 32.2157Z" fill="#07292F"/>
<path d="M15.1712 31.402C14.5828 34.7354 13.8009 38.755 12.3841 39.8432C12.0589 40.0785 11.7105 40.1569 11.277 39.5883C10.8125 38.9804 10.3325 38.2452 10.5105 36.7942C10.766 34.5883 12.1286 32.8432 13.8163 31.5393C13.9247 30.9706 14.0254 30.3432 14.1492 29.7452C13.6847 30.6079 13.0731 31.3726 12.3299 31.4608C10.9905 31.6177 10.7196 29.9314 10.9286 28.3138C11.1222 26.7452 11.7028 24.2452 12.6009 21.8922C12.7093 21.6079 12.8951 21.5883 13.0576 21.7942C13.5996 22.4412 13.6228 23.4314 13.1351 24.951C12.6628 26.4412 12.3918 27.4805 12.1983 28.6471C11.9893 29.8628 12.1363 30.6667 12.5699 30.6177C13.2899 30.5295 14.0022 28.8432 14.6525 26.6177C15.2022 24.7256 15.6976 22.4706 16.1699 21.1373C16.2938 20.804 16.4176 20.7256 16.6034 20.8726C16.9209 21.2354 17.1996 22.1961 16.8899 23.4805C16.526 24.951 15.7983 27.9804 15.3415 30.402C16.6344 29.1079 17.5325 27.5491 18.0822 26.1079C18.1518 25.9216 18.3144 25.8628 18.3841 26.0883C18.446 26.2942 18.4693 26.8334 18.2447 27.5099C17.7415 29.1079 16.5802 30.2746 15.1712 31.402ZM11.5325 38.7157C11.8344 39.0981 12.9802 36.2452 13.6383 32.5785C11.5015 34.853 11.1222 38.2059 11.5325 38.7157Z" fill="#07292F"/>
<path d="M25.0809 28.5687C24.1132 28.7844 23.4009 28.304 22.9286 27.353C22.8357 27.8726 22.7041 28.4804 22.6112 29.0001C22.5725 29.2452 22.4641 29.2942 22.3248 29.1373C21.9841 28.7353 21.7132 28.1079 21.8757 26.6079C22.1002 24.5785 24.4925 15.1961 25.4448 12.6961C25.5686 12.3628 25.7157 12.3236 25.9093 12.6177C26.2732 13.2059 26.4203 14.2451 25.9093 16.1569C25.7235 16.8628 25.1583 18.6373 24.7712 20.0393C25.2202 19.3138 25.7312 18.8236 26.2112 18.7157C27.7673 18.3726 28.2241 21.0883 27.6048 24.1373C27.0938 26.755 26.1415 28.3334 25.0809 28.5687ZM24.8719 20.9412C24.1983 22.2157 23.5867 24.3334 23.1609 26.2648C23.2925 26.9314 23.6332 27.6177 24.1441 27.6471C24.8099 27.6863 25.5532 26.804 26.2422 23.8824C26.9235 21.0295 26.5054 19.6667 26.0796 19.7157C25.6848 19.755 25.3209 20.1079 24.8719 20.9412Z" fill="#07292F"/>
<path d="M31.2976 26.6079C32.8305 26.3628 33.9067 24.2059 34.4796 22.5001C34.5415 22.2942 34.6886 22.2648 34.797 22.451C34.8976 22.6177 34.9286 23.2844 34.6886 23.9608C34.1157 25.5491 32.8538 26.9314 31.4525 27.2648C29.1376 27.8334 27.9221 25.1177 28.6963 21.8628C29.4705 18.6079 31.166 16.9903 32.1802 17.451C32.6834 17.6961 33.0628 17.9706 33.4267 18.4118C33.837 18.8922 33.8834 20.3432 33.2796 21.6961C32.575 23.2844 31.437 24.1667 29.966 23.1275C29.6796 25.3922 30.3221 26.755 31.2976 26.6079ZM32.0796 20.9412C32.5286 19.8334 32.7609 18.5393 32.4744 18.3432C32.0331 18.0393 30.7092 19.7648 30.1596 22.1569C30.1209 22.304 30.0899 22.4608 30.0667 22.5785C31.0576 23.0981 31.6692 21.9314 32.0796 20.9412Z" fill="#07292F"/>
<path d="M36.4228 17.7451C36.3919 16.8236 36.508 16.3432 36.8332 15.8138C37.1738 15.2648 37.5764 15.0785 37.7699 15.2451C37.9867 15.4314 37.9325 15.7157 37.7622 16.2942C37.708 16.451 37.6693 16.5981 37.6228 16.7746C37.7932 18.9314 38.3893 20.6667 38.5596 22.2746C38.6525 23.1863 38.6525 24.1863 38.0719 24.8922C39.2177 24.0393 39.7906 22.4804 40.077 21.1275C40.1312 20.853 40.3248 20.8824 40.4254 21.0491C40.5261 21.2451 40.5958 21.8432 40.379 22.6373C39.9067 24.3922 38.7841 25.5491 37.499 25.9118C36.4461 26.1961 35.3699 26.0785 34.5493 24.7844C33.9687 23.8432 33.8061 22.2942 34.3403 21.5099C34.5261 21.2255 34.6887 21.2844 34.7583 21.6569C34.8048 21.8432 34.828 22.0295 34.8745 22.2059C35.4396 20.7353 36.059 19.0491 36.4228 17.7451ZM35.2151 23.4118C35.6796 24.6961 36.3377 25.5295 36.9106 25.1569C37.708 24.6471 36.9261 21.0687 36.5932 19.2255C36.237 20.5785 35.7338 22.0099 35.2151 23.4118Z" fill="#07292F"/>
<path d="M39.9764 15.0687C39.7519 14.7844 39.8371 14.5981 40.1158 14.5589C40.6345 14.4706 41.1377 14.304 41.6254 14.1275C42.0125 12.7255 42.3764 11.5197 42.6164 10.9412C42.7403 10.6079 42.9261 10.5883 43.0577 10.8432C43.3519 11.451 43.4525 12.2157 43.1816 13.5099C43.8938 13.3236 44.2267 13.6863 44.4125 13.951C44.5829 14.1961 44.5287 14.3824 44.2577 14.4412C43.8474 14.4608 43.29 14.6569 42.8409 14.853C42.3454 16.5687 41.61 19.0491 41.1919 21.1471C40.8203 22.9706 41.2229 24.3628 41.9971 24.2353C42.8254 24.0981 43.6383 22.2157 44.0796 20.3334C44.1493 20.0295 44.3429 19.9412 44.4667 20.2451C44.6061 20.5981 44.5751 21.0295 44.4667 21.6079C44.3196 22.3334 43.3983 24.6373 41.9274 24.902C40.7119 25.1275 39.5042 23.6275 40.0151 20.7648C40.2396 19.5197 40.7351 17.402 41.2693 15.3922C40.6267 15.5393 40.1545 15.2844 39.9764 15.0687Z" fill="#07292F"/>
<path d="M52.619 12.7648C53.2461 12.6471 53.7415 13.804 53.6486 14.8726C54.3764 13.5883 55.4525 12.2255 56.0564 12.1177C56.7222 11.9902 57.0551 13.3236 56.8538 14.5687C56.668 15.6863 55.9867 17.4118 55.6925 18.6765C55.3673 20.1079 55.7699 21.1177 56.4202 20.951C57.1712 20.7648 57.7751 19.0491 58.2628 17.2648C58.3248 17.0393 58.4719 17 58.588 17.1471C58.7041 17.2942 58.7506 18.0687 58.6267 18.6471C58.3015 20.0785 57.2873 21.5 56.2267 21.7353C54.6319 22.0883 53.8267 20.6177 54.237 18.5687C54.6473 16.4902 55.917 13.5393 55.6228 13.4804C55.468 13.4412 54.8796 13.8334 53.9041 15.6079C52.6499 17.8726 52.0693 20.2942 51.6048 22.6471C51.5351 22.951 51.3957 23.0491 51.2022 22.853C50.846 22.5785 50.459 21.7255 50.7609 19.9412C51.0938 17.8824 52.6267 14.2451 52.2396 14.1667C52.0073 14.0981 51.1944 14.9216 50.2499 16.8138C49.3751 18.5393 48.7944 20.8922 48.3686 23.2353C48.3222 23.4608 48.2293 23.5785 48.0357 23.4314C47.5712 23.0785 47.3699 22.3334 47.517 21.0883C47.6951 19.5393 48.5777 15.9804 49.4293 13.5393C49.5222 13.2549 49.6693 13.2451 49.8164 13.451C50.219 14.0295 50.2886 14.951 50.1415 15.9314C50.7686 14.5687 51.9531 12.8922 52.619 12.7648Z" fill="#07292F"/>
<path d="M63.837 10.4314C63.9609 10.0981 64.1003 10.0099 64.2551 10.1961C64.588 10.5491 64.8744 11.5197 64.5957 12.7746C64.3402 13.9118 63.6667 15.853 63.3957 17.1765C63.117 18.5785 63.2409 19.5785 63.8525 19.3922C64.5957 19.1765 65.3854 17.3726 65.8035 15.6373C65.8654 15.4118 65.9893 15.353 66.0899 15.5491C66.1906 15.7452 66.2757 16.3236 66.1286 17.0197C65.8267 18.402 64.8512 19.9314 63.837 20.0883C62.8383 20.2354 62.2267 19.6079 62.0719 18.5197C61.6151 19.5981 60.9106 20.6373 60.0357 20.8334C58.3325 21.2157 57.5738 18.353 58.7041 15.2059C59.8035 12.1373 61.1041 10.7746 62.0177 10.5687C62.8073 10.3922 63.2796 11.0785 63.3648 11.9903C63.5351 11.3824 63.6899 10.8432 63.837 10.4314ZM62.5054 11.7059C61.9093 11.7648 60.7867 13.5687 60.0667 15.8628C59.3777 18.0687 59.4241 20.1667 60.1364 20.0295C60.8873 19.8824 61.6383 18.1863 62.2809 15.9412C63.0783 13.1275 63.0473 11.6569 62.5054 11.7059Z" fill="#07292F"/>
<path d="M65.7029 9.32359C65.4783 9.03927 65.5635 8.853 65.8422 8.81378C66.3609 8.72555 66.8642 8.55888 67.3519 8.38241C67.739 6.98045 68.1029 5.77457 68.3429 5.19614C68.4667 4.8628 68.6525 4.84319 68.7841 5.0981C69.0783 5.70594 69.179 6.47065 68.908 7.76476C69.6203 7.57849 69.9532 7.94123 70.139 8.20594C70.3093 8.46084 70.2551 8.63731 69.9841 8.69614C69.5738 8.71574 69.0164 8.91182 68.5674 9.1079C68.0719 10.8236 67.3364 13.304 66.9183 15.402C66.5467 17.2255 66.9493 18.6177 67.7235 18.4903C68.5519 18.353 69.3648 16.4706 69.8061 14.5883C69.8758 14.2844 70.0693 14.1961 70.1932 14.5001C70.3403 14.853 70.3016 15.2844 70.1932 15.8628C70.0461 16.5883 69.1248 18.8922 67.6538 19.1569C66.4383 19.3824 65.2306 17.8824 65.7416 15.0197C65.9661 13.7746 66.4616 11.6569 66.9958 9.64712C66.3532 9.79417 65.8809 9.53927 65.7029 9.32359Z" fill="#07292F"/>
<path d="M74.3119 9.402C74.8306 10.2942 74.2731 11.6863 74.0796 13.0197C74.0486 13.3138 73.979 13.402 73.7235 13.2942C73.2435 13.1177 72.8951 12.4804 73.0035 11.3726C73.0886 10.4902 73.499 9.37259 73.2048 9.17651C72.8486 8.92161 71.6796 10.7059 71.1531 13C70.5106 15.8432 71.1609 17.6765 72.2448 17.4608C73.7854 17.1373 74.8461 14.9902 75.388 13.3628C75.4499 13.1569 75.6125 13.0981 75.7209 13.3138C75.7983 13.4902 75.8061 14.0785 75.5893 14.7746C75.0861 16.2942 73.7932 17.7549 72.4074 18.0883C70.0925 18.6569 68.9003 15.951 69.6744 12.6961C70.4409 9.50985 72.1132 7.85298 73.1273 8.34318C73.677 8.61769 74.0177 8.92161 74.3119 9.402Z" fill="#07292F"/>
<path d="M80.1958 16.3824C78.6551 16.7255 78.0745 15.402 78.3454 13.255C78.6396 10.8726 79.8938 8.1079 79.5687 7.96084C79.29 7.83339 77.5093 9.85299 76.7583 12.2942C76.2938 13.804 75.8371 15.5785 75.5971 17.0981C75.5506 17.3236 75.4345 17.3922 75.3029 17.255C74.9545 16.902 74.699 16.2942 74.8848 14.8138C75.2022 12.353 77.8732 3.34319 79.0267 0.676523C79.1506 0.362797 79.3364 0.343189 79.468 0.598091C79.8009 1.21574 79.9093 2.3824 79.4138 4.00005C79.1041 5.01966 78.3919 7.1177 77.8267 8.84319C78.4461 7.74515 79.29 6.77456 79.7932 6.73535C80.428 6.68633 81.1558 7.71574 80.8461 9.00986C80.5829 10.1177 79.9403 12.0099 79.6925 13.304C79.4216 14.755 79.6616 15.8236 80.3351 15.6177C81.0783 15.402 81.8525 13.5099 82.2164 11.902C82.2629 11.6765 82.4409 11.6373 82.5416 11.804C82.6654 12.0393 82.7351 12.5197 82.5571 13.2844C82.2242 14.7353 81.2719 16.1373 80.1958 16.3824Z" fill="#07292F"/>
</svg>
