<svg width="49" height="49" viewBox="0 0 49 49" fill="none" xmlns="http://www.w3.org/2000/svg">
<circle cx="24.5" cy="24.5" r="24.5" fill="#09B3B0"/>
<path d="M22.6667 35.3333C25.477 35.3328 28.2064 34.3919 30.4203 32.6607L37.3806 39.621L39.6194 37.3822L32.6591 30.4218C34.3913 28.2078 35.3327 25.4778 35.3333 22.6667C35.3333 15.6826 29.6507 10 22.6667 10C15.6826 10 10 15.6826 10 22.6667C10 29.6507 15.6826 35.3333 22.6667 35.3333ZM22.6667 13.1667C27.9059 13.1667 32.1667 17.4274 32.1667 22.6667C32.1667 27.9059 27.9059 32.1667 22.6667 32.1667C17.4274 32.1667 13.1667 27.9059 13.1667 22.6667C13.1667 17.4274 17.4274 13.1667 22.6667 13.1667Z" fill="white"/>
<path d="M24.0691 19.5945C24.6691 20.1962 25.0001 20.991 25.0001 21.8333H28.1667C28.1681 21.0012 28.0046 20.177 27.6855 19.4084C27.3665 18.6399 26.8982 17.9422 26.3079 17.3557C23.9107 14.9617 19.7545 14.9617 17.3589 17.3557L19.5946 19.5977C20.7979 18.3975 22.8721 18.4007 24.0691 19.5945Z" fill="white"/>
</svg>
