<svg width="27" height="26" viewBox="0 0 27 26" fill="none" xmlns="http://www.w3.org/2000/svg">
<rect width="27" height="26" fill="#09B3B0"/>
<path d="M26.5983 5.34842C25.659 5.74925 24.6498 6.02009 23.589 6.1425C24.6836 5.51178 25.5025 4.51909 25.893 3.34967C24.8645 3.93791 23.739 4.35196 22.5652 4.57384C21.7759 3.76227 20.7304 3.22436 19.5911 3.0436C18.4517 2.86284 17.2823 3.04936 16.2643 3.57419C15.2464 4.09903 14.4368 4.93281 13.9614 5.9461C13.4859 6.95938 13.3712 8.09548 13.635 9.178C11.5511 9.07725 9.51253 8.55568 7.65156 7.64715C5.79058 6.73862 4.14877 5.46343 2.8327 3.90434C2.3827 4.65184 2.12395 5.5185 2.12395 6.4415C2.12345 7.27241 2.33594 8.0906 2.74257 8.82346C3.14919 9.55633 3.73738 10.1812 4.45495 10.6427C3.62276 10.6172 2.80893 10.4006 2.0812 10.0111V10.0761C2.08112 11.2415 2.49974 12.371 3.26603 13.273C4.03233 14.175 5.0991 14.7939 6.28533 15.0248C5.51333 15.2259 4.70396 15.2556 3.91833 15.1114C4.25301 16.1142 4.90495 16.991 5.78287 17.6193C6.66078 18.2475 7.72073 18.5956 8.81433 18.6149C6.95789 20.0183 4.6652 20.7795 2.30508 20.7762C1.88701 20.7763 1.46929 20.7528 1.05408 20.7058C3.44974 22.189 6.23846 22.9762 9.08658 22.9732C18.7278 22.9732 23.9985 15.2837 23.9985 8.61467C23.9985 8.398 23.9928 8.17917 23.9827 7.9625C25.0079 7.24856 25.8929 6.36447 26.5961 5.35167L26.5983 5.34842Z" fill="#F8F8F8"/>
</svg>
