<svg width="25" height="20" viewBox="0 0 25 20" fill="none" xmlns="http://www.w3.org/2000/svg">
<path d="M21.9678 -0.0202109C21.292 -0.0300309 19.7222 0.195329 17.1013 1.91851C15.6728 1.56781 14.1529 1.39475 12.6304 1.39475C10.9552 1.39475 9.26234 1.60371 7.68363 2.02913C3.92064 -0.492611 2.25969 0.0241691 2.25969 0.0241691C1.17536 2.68783 1.84543 4.65993 2.04909 5.14971C0.774618 6.50087 -0.00341797 8.22625 -0.00341797 10.3409C-0.00341797 11.9373 0.181552 13.3692 0.633462 14.6139C0.658525 14.71 0.650402 14.6886 0.692628 14.7708C0.792188 15.0285 0.902886 15.2786 1.02731 15.5202C1.06994 15.6071 1.10875 15.6714 1.10875 15.6714C2.37911 17.9976 4.8834 19.5002 9.33914 19.972L16.0782 19.9795C20.83 19.5166 23.1102 18.0095 24.161 15.6677L24.2278 15.5152C24.3273 15.2786 24.4141 15.0325 24.6515 14.2039C24.8889 13.3754 24.9951 11.9405 24.9951 10.3403C24.9951 8.04515 24.1176 6.20871 22.6925 4.81157C22.9416 4.02197 23.2742 2.26841 22.3604 0.0235291C22.3604 0.0235291 22.2323 -0.0163709 21.9679 -0.0202309L21.9678 -0.0202109ZM16.6571 8.40215C17.7544 8.39981 18.6943 8.58487 19.4 9.31213V9.31275C20.283 10.2236 20.7997 11.3232 20.7997 12.5083C20.7997 18.0415 17.177 18.192 12.7087 18.192C8.23952 18.192 4.6176 17.4252 4.6176 12.5083C4.6176 11.3311 5.12679 10.238 5.99888 9.33087C7.45362 7.81907 9.91543 8.61963 12.7087 8.61963C14.1425 8.61941 15.4891 8.40463 16.6572 8.40213L16.6571 8.40215ZM8.33385 10.0315C7.40409 10.0315 6.65034 11.2663 6.65034 12.7902C6.65034 14.3143 7.40405 15.5496 8.33385 15.5496C9.2636 15.5496 10.0174 14.3143 10.0174 12.7902C10.0174 11.2665 9.26365 10.0326 8.33385 10.0315ZM17.3665 10.0315C16.4368 10.0315 15.683 11.2663 15.683 12.7902C15.683 14.3143 16.4367 15.5496 17.3665 15.5496C18.2963 15.5496 19.05 14.3143 19.05 12.7902C19.05 11.2665 18.2963 10.0326 17.3665 10.0315Z" fill="#F8F8F8"/>
</svg>
