<svg width="30" height="30" viewBox="0 0 30 30" fill="none" xmlns="http://www.w3.org/2000/svg">
<path d="M12.6667 25.3333C15.477 25.3328 18.2064 24.3919 20.4203 22.6607L27.3806 29.621L29.6194 27.3822L22.6591 20.4218C24.3913 18.2078 25.3327 15.4778 25.3333 12.6667C25.3333 5.68258 19.6507 0 12.6667 0C5.68258 0 0 5.68258 0 12.6667C0 19.6507 5.68258 25.3333 12.6667 25.3333ZM12.6667 3.16667C17.9059 3.16667 22.1667 7.42742 22.1667 12.6667C22.1667 17.9059 17.9059 22.1667 12.6667 22.1667C7.42742 22.1667 3.16667 17.9059 3.16667 12.6667C3.16667 7.42742 7.42742 3.16667 12.6667 3.16667Z" fill="white"/>
</svg>
