<svg width="26" height="26" viewBox="0 0 26 26" fill="none" xmlns="http://www.w3.org/2000/svg">
<g clip-path="url(#clip0)">
<rect width="26" height="26" fill="#09B3B0"/>
<path d="M25.4583 7.04929C25.3111 6.52413 25.0243 6.04867 24.6284 5.67346C24.2214 5.28671 23.7226 5.01006 23.1789 4.86962C21.1444 4.33337 12.9934 4.33338 12.9934 4.33338C9.59538 4.29471 6.19815 4.46476 2.82094 4.84254C2.27731 4.99336 1.77938 5.27619 1.37144 5.66588C0.970603 6.05154 0.68027 6.52713 0.528603 7.04821C0.16427 9.01093 -0.0127475 11.0038 -6.38066e-05 13C-0.0130638 14.9945 0.16352 16.9867 0.528603 18.9519C0.67702 19.4708 0.96627 19.9442 1.36819 20.3266C1.7701 20.709 2.2706 20.9853 2.82094 21.1315C4.88252 21.6667 12.9934 21.6667 12.9934 21.6667C16.3958 21.7054 19.7974 21.5354 23.1789 21.1575C23.7226 21.0171 24.2214 20.7405 24.6284 20.3537C25.0293 19.9713 25.3142 19.4957 25.4572 18.9779C25.831 17.0159 26.0128 15.0222 25.9999 13.025C26.0281 11.0193 25.8465 9.01615 25.4583 7.04821V7.04929ZM10.4021 16.7094V9.29179L17.1838 13.0011L10.4021 16.7094Z" fill="#F8F8F8"/>
</g>
<defs>
<clipPath id="clip0">
<rect width="26" height="26" fill="white"/>
</clipPath>
</defs>
</svg>
